<mxfile host="app.diagrams.net" modified="2023-09-20T20:56:59.388Z" agent="Mozilla/5.0 (Windows NT 10.0; Win64; x64) AppleWebKit/537.36 (KHTML, like Gecko) Chrome/117.0.0.0 Safari/537.36" etag="VI0t8jyHGeCUo8h85-Ta" version="21.7.5" type="github">
  <diagram name="Side-1" id="TzCy3M9Usm1owWkQddZJ">
    <mxGraphModel dx="1079" dy="955" grid="1" gridSize="10" guides="1" tooltips="1" connect="1" arrows="1" fold="1" page="1" pageScale="1" pageWidth="827" pageHeight="1169" math="0" shadow="0">
      <root>
        <mxCell id="0" />
        <mxCell id="1" parent="0" />
        <mxCell id="QCNH6O7dwWk86F0y5v7J-1" value="&lt;i&gt;Animal&lt;/i&gt;" style="swimlane;fontStyle=1;align=center;verticalAlign=top;childLayout=stackLayout;horizontal=1;startSize=26;horizontalStack=0;resizeParent=1;resizeParentMax=0;resizeLast=0;collapsible=1;marginBottom=0;whiteSpace=wrap;html=1;" vertex="1" parent="1">
          <mxGeometry x="330" y="340" width="160" height="160" as="geometry" />
        </mxCell>
        <mxCell id="QCNH6O7dwWk86F0y5v7J-2" value="# type: Enum&lt;br&gt;# sex: Enum&lt;br&gt;# reproduction: Enum&lt;br&gt;# legCoun: Enum&lt;br&gt;# appearanceType: Enum&lt;br&gt;- ageInMonths: int&lt;br&gt;" style="text;strokeColor=none;fillColor=none;align=left;verticalAlign=top;spacingLeft=4;spacingRight=4;overflow=hidden;rotatable=0;points=[[0,0.5],[1,0.5]];portConstraint=eastwest;whiteSpace=wrap;html=1;" vertex="1" parent="QCNH6O7dwWk86F0y5v7J-1">
          <mxGeometry y="26" width="160" height="104" as="geometry" />
        </mxCell>
        <mxCell id="QCNH6O7dwWk86F0y5v7J-3" value="" style="line;strokeWidth=1;fillColor=none;align=left;verticalAlign=middle;spacingTop=-1;spacingLeft=3;spacingRight=3;rotatable=0;labelPosition=right;points=[];portConstraint=eastwest;strokeColor=inherit;" vertex="1" parent="QCNH6O7dwWk86F0y5v7J-1">
          <mxGeometry y="130" width="160" height="2" as="geometry" />
        </mxCell>
        <mxCell id="QCNH6O7dwWk86F0y5v7J-4" value="+ LayEggOrGiveBirth" style="text;strokeColor=none;fillColor=none;align=left;verticalAlign=top;spacingLeft=4;spacingRight=4;overflow=hidden;rotatable=0;points=[[0,0.5],[1,0.5]];portConstraint=eastwest;whiteSpace=wrap;html=1;" vertex="1" parent="QCNH6O7dwWk86F0y5v7J-1">
          <mxGeometry y="132" width="160" height="28" as="geometry" />
        </mxCell>
        <mxCell id="QCNH6O7dwWk86F0y5v7J-6" value="«interface»&lt;br&gt;IReproduction" style="html=1;whiteSpace=wrap;" vertex="1" parent="1">
          <mxGeometry x="120" y="340" width="130" height="50" as="geometry" />
        </mxCell>
        <mxCell id="QCNH6O7dwWk86F0y5v7J-7" value="+ LayEggOrGiveBirth" style="rounded=0;whiteSpace=wrap;html=1;" vertex="1" parent="1">
          <mxGeometry x="120" y="390" width="130" height="60" as="geometry" />
        </mxCell>
        <mxCell id="QCNH6O7dwWk86F0y5v7J-8" value="&lt;span style=&quot;font-weight: normal;&quot;&gt;FarmAnimal&lt;/span&gt;" style="swimlane;fontStyle=1;align=center;verticalAlign=top;childLayout=stackLayout;horizontal=1;startSize=26;horizontalStack=0;resizeParent=1;resizeParentMax=0;resizeLast=0;collapsible=1;marginBottom=0;whiteSpace=wrap;html=1;" vertex="1" parent="1">
          <mxGeometry x="330" y="560" width="160" height="100" as="geometry" />
        </mxCell>
        <mxCell id="QCNH6O7dwWk86F0y5v7J-9" value="# specie: Enum" style="text;strokeColor=none;fillColor=none;align=left;verticalAlign=top;spacingLeft=4;spacingRight=4;overflow=hidden;rotatable=0;points=[[0,0.5],[1,0.5]];portConstraint=eastwest;whiteSpace=wrap;html=1;" vertex="1" parent="QCNH6O7dwWk86F0y5v7J-8">
          <mxGeometry y="26" width="160" height="26" as="geometry" />
        </mxCell>
        <mxCell id="QCNH6O7dwWk86F0y5v7J-10" value="" style="line;strokeWidth=1;fillColor=none;align=left;verticalAlign=middle;spacingTop=-1;spacingLeft=3;spacingRight=3;rotatable=0;labelPosition=right;points=[];portConstraint=eastwest;strokeColor=inherit;" vertex="1" parent="QCNH6O7dwWk86F0y5v7J-8">
          <mxGeometry y="52" width="160" height="8" as="geometry" />
        </mxCell>
        <mxCell id="QCNH6O7dwWk86F0y5v7J-11" value="+ LayEggOrGiveBirth&lt;br&gt;+ ToString" style="text;strokeColor=none;fillColor=none;align=left;verticalAlign=top;spacingLeft=4;spacingRight=4;overflow=hidden;rotatable=0;points=[[0,0.5],[1,0.5]];portConstraint=eastwest;whiteSpace=wrap;html=1;" vertex="1" parent="QCNH6O7dwWk86F0y5v7J-8">
          <mxGeometry y="60" width="160" height="40" as="geometry" />
        </mxCell>
        <mxCell id="QCNH6O7dwWk86F0y5v7J-12" value="Extends" style="endArrow=block;endSize=16;endFill=0;html=1;rounded=0;exitX=0.5;exitY=0;exitDx=0;exitDy=0;" edge="1" parent="1" source="QCNH6O7dwWk86F0y5v7J-8" target="QCNH6O7dwWk86F0y5v7J-4">
          <mxGeometry width="160" relative="1" as="geometry">
            <mxPoint x="430" y="570" as="sourcePoint" />
            <mxPoint x="590" y="570" as="targetPoint" />
          </mxGeometry>
        </mxCell>
        <mxCell id="QCNH6O7dwWk86F0y5v7J-13" value="" style="endArrow=block;dashed=1;endFill=0;endSize=12;html=1;rounded=0;exitX=-0.025;exitY=0.367;exitDx=0;exitDy=0;exitPerimeter=0;entryX=1;entryY=0.25;entryDx=0;entryDy=0;" edge="1" parent="1" source="QCNH6O7dwWk86F0y5v7J-2" target="QCNH6O7dwWk86F0y5v7J-7">
          <mxGeometry width="160" relative="1" as="geometry">
            <mxPoint x="430" y="570" as="sourcePoint" />
            <mxPoint x="590" y="570" as="targetPoint" />
          </mxGeometry>
        </mxCell>
        <mxCell id="QCNH6O7dwWk86F0y5v7J-14" value="&lt;span style=&quot;font-weight: normal;&quot;&gt;AnimalStation&lt;/span&gt;" style="swimlane;fontStyle=1;align=center;verticalAlign=top;childLayout=stackLayout;horizontal=1;startSize=26;horizontalStack=0;resizeParent=1;resizeParentMax=0;resizeLast=0;collapsible=1;marginBottom=0;whiteSpace=wrap;html=1;" vertex="1" parent="1">
          <mxGeometry x="290" y="770" width="210" height="150" as="geometry" />
        </mxCell>
        <mxCell id="QCNH6O7dwWk86F0y5v7J-15" value="#&amp;nbsp;FarmAnimals:&amp;nbsp;List&amp;lt;FarmAnimal&amp;gt;&lt;br&gt;#&amp;nbsp;LeftAnimals:&amp;nbsp;List&amp;lt;FarmAnimal&amp;gt;" style="text;strokeColor=none;fillColor=none;align=left;verticalAlign=top;spacingLeft=4;spacingRight=4;overflow=hidden;rotatable=0;points=[[0,0.5],[1,0.5]];portConstraint=eastwest;whiteSpace=wrap;html=1;" vertex="1" parent="QCNH6O7dwWk86F0y5v7J-14">
          <mxGeometry y="26" width="210" height="44" as="geometry" />
        </mxCell>
        <mxCell id="QCNH6O7dwWk86F0y5v7J-16" value="" style="line;strokeWidth=1;fillColor=none;align=left;verticalAlign=middle;spacingTop=-1;spacingLeft=3;spacingRight=3;rotatable=0;labelPosition=right;points=[];portConstraint=eastwest;strokeColor=inherit;" vertex="1" parent="QCNH6O7dwWk86F0y5v7J-14">
          <mxGeometry y="70" width="210" height="8" as="geometry" />
        </mxCell>
        <mxCell id="QCNH6O7dwWk86F0y5v7J-17" value="# AddAnimal&lt;br&gt;# DeleteAnimal&lt;br&gt;#&amp;nbsp;GetAllLeftAnimalAgeInMonths&lt;br&gt;+ ToString" style="text;strokeColor=none;fillColor=none;align=left;verticalAlign=top;spacingLeft=4;spacingRight=4;overflow=hidden;rotatable=0;points=[[0,0.5],[1,0.5]];portConstraint=eastwest;whiteSpace=wrap;html=1;" vertex="1" parent="QCNH6O7dwWk86F0y5v7J-14">
          <mxGeometry y="78" width="210" height="72" as="geometry" />
        </mxCell>
        <mxCell id="QCNH6O7dwWk86F0y5v7J-18" value="" style="endArrow=open;html=1;endSize=12;startArrow=diamondThin;startSize=14;startFill=1;edgeStyle=orthogonalEdgeStyle;align=left;verticalAlign=bottom;rounded=0;entryX=0.538;entryY=1;entryDx=0;entryDy=0;entryPerimeter=0;exitX=0.588;exitY=-0.017;exitDx=0;exitDy=0;exitPerimeter=0;" edge="1" parent="1" source="QCNH6O7dwWk86F0y5v7J-14" target="QCNH6O7dwWk86F0y5v7J-11">
          <mxGeometry x="-0.8758" y="-17" relative="1" as="geometry">
            <mxPoint x="430" y="730" as="sourcePoint" />
            <mxPoint x="590" y="730" as="targetPoint" />
            <mxPoint as="offset" />
          </mxGeometry>
        </mxCell>
        <mxCell id="QCNH6O7dwWk86F0y5v7J-21" value="0, *" style="text;html=1;align=center;verticalAlign=middle;resizable=0;points=[];autosize=1;strokeColor=none;fillColor=none;" vertex="1" parent="1">
          <mxGeometry x="419" y="660" width="40" height="30" as="geometry" />
        </mxCell>
        <mxCell id="QCNH6O7dwWk86F0y5v7J-31" value="&lt;span style=&quot;font-weight: normal;&quot;&gt;Chicken&lt;/span&gt;" style="swimlane;fontStyle=1;align=center;verticalAlign=top;childLayout=stackLayout;horizontal=1;startSize=26;horizontalStack=0;resizeParent=1;resizeParentMax=0;resizeLast=0;collapsible=1;marginBottom=0;whiteSpace=wrap;html=1;" vertex="1" parent="1">
          <mxGeometry x="600" y="430" width="160" height="100" as="geometry" />
        </mxCell>
        <mxCell id="QCNH6O7dwWk86F0y5v7J-32" value="# featherColor: string" style="text;strokeColor=none;fillColor=none;align=left;verticalAlign=top;spacingLeft=4;spacingRight=4;overflow=hidden;rotatable=0;points=[[0,0.5],[1,0.5]];portConstraint=eastwest;whiteSpace=wrap;html=1;" vertex="1" parent="QCNH6O7dwWk86F0y5v7J-31">
          <mxGeometry y="26" width="160" height="26" as="geometry" />
        </mxCell>
        <mxCell id="QCNH6O7dwWk86F0y5v7J-33" value="" style="line;strokeWidth=1;fillColor=none;align=left;verticalAlign=middle;spacingTop=-1;spacingLeft=3;spacingRight=3;rotatable=0;labelPosition=right;points=[];portConstraint=eastwest;strokeColor=inherit;" vertex="1" parent="QCNH6O7dwWk86F0y5v7J-31">
          <mxGeometry y="52" width="160" height="8" as="geometry" />
        </mxCell>
        <mxCell id="QCNH6O7dwWk86F0y5v7J-34" value="+ LayEggOrGiveBirth&lt;br&gt;+ ToString" style="text;strokeColor=none;fillColor=none;align=left;verticalAlign=top;spacingLeft=4;spacingRight=4;overflow=hidden;rotatable=0;points=[[0,0.5],[1,0.5]];portConstraint=eastwest;whiteSpace=wrap;html=1;" vertex="1" parent="QCNH6O7dwWk86F0y5v7J-31">
          <mxGeometry y="60" width="160" height="40" as="geometry" />
        </mxCell>
        <mxCell id="QCNH6O7dwWk86F0y5v7J-35" value="&lt;span style=&quot;font-weight: normal;&quot;&gt;Dog&lt;/span&gt;" style="swimlane;fontStyle=1;align=center;verticalAlign=top;childLayout=stackLayout;horizontal=1;startSize=26;horizontalStack=0;resizeParent=1;resizeParentMax=0;resizeLast=0;collapsible=1;marginBottom=0;whiteSpace=wrap;html=1;" vertex="1" parent="1">
          <mxGeometry x="600" y="560" width="160" height="100" as="geometry" />
        </mxCell>
        <mxCell id="QCNH6O7dwWk86F0y5v7J-36" value="# furColor: string" style="text;strokeColor=none;fillColor=none;align=left;verticalAlign=top;spacingLeft=4;spacingRight=4;overflow=hidden;rotatable=0;points=[[0,0.5],[1,0.5]];portConstraint=eastwest;whiteSpace=wrap;html=1;" vertex="1" parent="QCNH6O7dwWk86F0y5v7J-35">
          <mxGeometry y="26" width="160" height="26" as="geometry" />
        </mxCell>
        <mxCell id="QCNH6O7dwWk86F0y5v7J-37" value="" style="line;strokeWidth=1;fillColor=none;align=left;verticalAlign=middle;spacingTop=-1;spacingLeft=3;spacingRight=3;rotatable=0;labelPosition=right;points=[];portConstraint=eastwest;strokeColor=inherit;" vertex="1" parent="QCNH6O7dwWk86F0y5v7J-35">
          <mxGeometry y="52" width="160" height="8" as="geometry" />
        </mxCell>
        <mxCell id="QCNH6O7dwWk86F0y5v7J-38" value="+ LayEggOrGiveBirth&lt;br&gt;+ ToString" style="text;strokeColor=none;fillColor=none;align=left;verticalAlign=top;spacingLeft=4;spacingRight=4;overflow=hidden;rotatable=0;points=[[0,0.5],[1,0.5]];portConstraint=eastwest;whiteSpace=wrap;html=1;" vertex="1" parent="QCNH6O7dwWk86F0y5v7J-35">
          <mxGeometry y="60" width="160" height="40" as="geometry" />
        </mxCell>
        <mxCell id="QCNH6O7dwWk86F0y5v7J-43" value="&lt;span style=&quot;font-weight: normal;&quot;&gt;Rabbit&lt;/span&gt;" style="swimlane;fontStyle=1;align=center;verticalAlign=top;childLayout=stackLayout;horizontal=1;startSize=26;horizontalStack=0;resizeParent=1;resizeParentMax=0;resizeLast=0;collapsible=1;marginBottom=0;whiteSpace=wrap;html=1;" vertex="1" parent="1">
          <mxGeometry x="600" y="690" width="160" height="100" as="geometry" />
        </mxCell>
        <mxCell id="QCNH6O7dwWk86F0y5v7J-44" value="# furColor: string" style="text;strokeColor=none;fillColor=none;align=left;verticalAlign=top;spacingLeft=4;spacingRight=4;overflow=hidden;rotatable=0;points=[[0,0.5],[1,0.5]];portConstraint=eastwest;whiteSpace=wrap;html=1;" vertex="1" parent="QCNH6O7dwWk86F0y5v7J-43">
          <mxGeometry y="26" width="160" height="26" as="geometry" />
        </mxCell>
        <mxCell id="QCNH6O7dwWk86F0y5v7J-45" value="" style="line;strokeWidth=1;fillColor=none;align=left;verticalAlign=middle;spacingTop=-1;spacingLeft=3;spacingRight=3;rotatable=0;labelPosition=right;points=[];portConstraint=eastwest;strokeColor=inherit;" vertex="1" parent="QCNH6O7dwWk86F0y5v7J-43">
          <mxGeometry y="52" width="160" height="8" as="geometry" />
        </mxCell>
        <mxCell id="QCNH6O7dwWk86F0y5v7J-46" value="+ LayEggOrGiveBirth&lt;br&gt;+ ToString" style="text;strokeColor=none;fillColor=none;align=left;verticalAlign=top;spacingLeft=4;spacingRight=4;overflow=hidden;rotatable=0;points=[[0,0.5],[1,0.5]];portConstraint=eastwest;whiteSpace=wrap;html=1;" vertex="1" parent="QCNH6O7dwWk86F0y5v7J-43">
          <mxGeometry y="60" width="160" height="40" as="geometry" />
        </mxCell>
        <mxCell id="QCNH6O7dwWk86F0y5v7J-47" value="Extends" style="endArrow=block;endSize=16;endFill=0;html=1;rounded=0;exitX=0;exitY=0.5;exitDx=0;exitDy=0;" edge="1" parent="1" source="QCNH6O7dwWk86F0y5v7J-36" target="QCNH6O7dwWk86F0y5v7J-9">
          <mxGeometry width="160" relative="1" as="geometry">
            <mxPoint x="430" y="730" as="sourcePoint" />
            <mxPoint x="590" y="730" as="targetPoint" />
          </mxGeometry>
        </mxCell>
        <mxCell id="QCNH6O7dwWk86F0y5v7J-49" value="" style="endArrow=none;html=1;rounded=0;entryX=-0.015;entryY=1.147;entryDx=0;entryDy=0;entryPerimeter=0;exitX=-0.015;exitY=1.308;exitDx=0;exitDy=0;exitPerimeter=0;" edge="1" parent="1" source="QCNH6O7dwWk86F0y5v7J-44" target="QCNH6O7dwWk86F0y5v7J-32">
          <mxGeometry width="50" height="50" relative="1" as="geometry">
            <mxPoint x="480" y="760" as="sourcePoint" />
            <mxPoint x="530" y="710" as="targetPoint" />
            <Array as="points">
              <mxPoint x="580" y="750" />
              <mxPoint x="580" y="486" />
            </Array>
          </mxGeometry>
        </mxCell>
      </root>
    </mxGraphModel>
  </diagram>
</mxfile>
